<svg width="58" height="22" viewBox="0 0 58 22" fill="none" xmlns="http://www.w3.org/2000/svg">
<g clip-path="url(#clip0_305_9722)">
<g clip-path="url(#clip1_305_9722)">
<path d="M21 11C21 16.5228 16.5228 21 11 21C5.47715 21 1 16.5228 1 11C1 5.47715 5.47715 1 11 1C16.5228 1 21 5.47715 21 11Z" fill="#E1E1E1" stroke="#E1E1E1" stroke-width="2"/>
<path fill-rule="evenodd" clip-rule="evenodd" d="M10.9991 3.99609L13.7931 8.35315L10.9991 12.7228L8.20508 8.35315L10.9991 3.99609Z" fill="black"/>
<path d="M19.8374 11.003C19.8374 11.002 19.8374 11.001 19.8374 11H19.8373C19.8353 10.7689 19.6474 10.582 19.4157 10.582C19.1841 10.582 18.9961 10.7689 18.9941 11H18.9941C18.9941 15.4146 15.4153 18.9934 11.0007 18.9934C6.58614 18.9934 3.0074 15.4146 3.0074 11H3.00732C3.00534 10.7689 2.81739 10.582 2.58573 10.582C2.35407 10.582 2.16612 10.7689 2.16414 11H2.16406C2.16406 11.001 2.16406 11.002 2.16406 11.003C2.16406 11.0032 2.16406 11.0035 2.16406 11.0037C2.16406 11.0041 2.16406 11.0045 2.16406 11.0049C2.1667 15.883 6.12201 19.8367 11.0007 19.8367C15.8794 19.8367 19.8348 15.883 19.8374 11.0049C19.8374 11.0045 19.8374 11.0041 19.8374 11.0037C19.8374 11.0035 19.8374 11.0032 19.8374 11.003Z" fill="black"/>
</g>
<path fill-rule="evenodd" clip-rule="evenodd" d="M57.142 16.1876L56.8946 16.4252C56.3182 16.9786 55.8493 17.2152 55.1106 17.5126C54.3675 17.8166 53.686 17.9714 52.8266 17.9714C51.9739 17.9714 51.1657 17.8192 50.4051 17.5129L50.4021 17.5118L50.3993 17.5105C49.6572 17.1952 49.003 16.7732 48.4393 16.2438L48.4367 16.2413L48.4341 16.2388C47.8826 15.6975 47.4417 15.068 47.1119 14.3527L47.1105 14.3497L47.1092 14.3467C46.784 13.6021 46.6289 12.5756 46.6289 11.7653C46.6289 10.9414 46.7886 10.1655 47.11 9.44153L47.1105 9.44033L47.1111 9.43912C47.4407 8.71248 47.8817 8.07671 48.4341 7.53453L48.4354 7.53326L48.4367 7.53201C49.0014 6.98992 49.6574 6.56646 50.4022 6.26155C51.1562 5.94642 51.8382 5.78516 52.6996 5.78516C53.5576 5.78516 54.3541 5.95612 55.1098 6.26037C55.8667 6.5651 56.5298 6.98878 57.0956 7.53201L57.3457 7.77209L56.0325 9.00656L55.8071 8.79601C55.409 8.42417 54.939 8.1277 54.3937 7.9078L54.39 7.90634L54.3865 7.90479C53.8508 7.6739 53.4124 7.56387 52.8266 7.56387C52.244 7.56387 51.6905 7.67754 51.1633 7.90479L51.1618 7.9054L51.1604 7.906C50.6391 8.12499 50.1728 8.42688 49.7601 8.81265L49.7601 8.81273C49.3632 9.18343 49.0455 9.62711 48.8072 10.1471L48.8067 10.1482L48.8061 10.1494C48.5719 10.6503 48.454 11.1876 48.454 11.7653C48.454 12.3382 48.5721 13.1043 48.7906 13.5946C49.0175 14.0922 49.3249 14.538 49.7143 14.9333C50.1136 15.3159 50.5783 15.6222 51.111 15.8518C51.636 16.0781 52.2066 16.1927 52.8266 16.1927C53.4042 16.1927 53.8463 16.0922 54.3962 15.8812C54.9585 15.6544 55.2159 15.529 55.5996 15.1506L55.8277 14.9258L57.142 16.1876Z" fill="#E1E1E1"/>
<path fill-rule="evenodd" clip-rule="evenodd" d="M33.6074 17.895L32.7627 15.8161C30.9423 16.7668 28.6905 16.7784 26.8613 15.8596L25.9668 17.895H23.9414L28.6958 5.78906H30.9045L35.6387 17.895H33.6074ZM27.4525 14.1258C28.6717 15.0328 30.5619 15.0823 31.832 14.2109L31.8371 14.2074L32.1358 14.0184L29.801 8.01522L27.4525 14.1258Z" fill="#E1E1E1"/>
<path fill-rule="evenodd" clip-rule="evenodd" d="M39.7287 5.71875L39.731 5.71878C40.5764 5.73071 41.3813 5.89192 42.1432 6.2034C42.9137 6.51351 43.5886 6.94434 44.1647 7.49649C44.7535 8.03802 45.2168 8.6816 45.554 9.42439C45.8947 10.1632 46.0637 10.9606 46.0637 11.8124C46.0637 12.6534 45.8945 13.4499 45.555 14.1983C45.2296 14.9303 44.7785 15.5735 44.2028 16.1259L44.2015 16.1271L44.2002 16.1283C43.6246 16.6686 42.9508 17.0989 42.1819 17.4201L42.1808 17.4206L42.1797 17.421C41.4149 17.7338 40.5961 17.889 39.7264 17.889H36.1777V5.71875H39.7287ZM43.8659 10.1517L43.8642 10.148C43.632 9.61744 43.3129 9.16432 42.907 8.78534L42.9037 8.78234L42.9006 8.77925C42.5056 8.38975 42.0319 8.08222 41.4753 7.85793L41.4718 7.85651L41.4683 7.85501C40.929 7.62267 40.3495 7.50549 39.7264 7.50549H38.0126V16.1022H39.7236C40.3368 16.0912 40.9132 15.9736 41.4554 15.7506C42.002 15.5259 42.4785 15.2224 42.8876 14.8409C43.297 14.4478 43.6234 13.9912 43.8676 13.4694C44.108 12.9557 44.2289 12.4046 44.2289 11.8124C44.2289 11.2202 44.108 10.6691 43.8676 10.1554L43.8659 10.1517Z" fill="#E1E1E1"/>
</g>
<defs>
<clipPath id="clip0_305_9722">
<rect width="58" height="22" fill="white"/>
</clipPath>
<clipPath id="clip1_305_9722">
<rect width="22" height="22" fill="white"/>
</clipPath>
</defs>
</svg>
